<svg aria-hidden="true" style="position: absolute; width: 0; height: 0; overflow: hidden;" version="1.1" xmlns="http://www.w3.org/2000/svg" xmlns:xlink="http://www.w3.org/1999/xlink">
<defs>
<symbol id="icon-logo-icon" viewBox="0 0 68 32">
<path d="M63.747 0.594c-0.625 0.16-1.17 0.603-1.449 1.188-0.465 0.966-0.368 1.999 0.239 2.606 0.403 0.403 1.241 0.647 1.83 0.532 0.749-0.146 1.454-0.78 1.72-1.556 0.146-0.43 0.168-1.175 0.049-1.578-0.173-0.563-0.576-0.988-1.095-1.148-0.301-0.093-1.002-0.12-1.294-0.044z"></path>
<path d="M50.504 1.214c-0.075 0.031-0.168 0.106-0.208 0.168s-2.752 4.995-6.023 10.965c-5.917 10.788-5.952 10.854-5.957 11.107 0 0.217 0.018 0.27 0.129 0.386 0.075 0.075 0.204 0.16 0.288 0.182 0.213 0.058 2.859 0.058 3.071 0 0.089-0.027 0.208-0.102 0.266-0.168 0.058-0.071 0.891-1.604 1.853-3.413l1.751-3.289h6.573l0.027 0.12c0.013 0.071 0.199 1.529 0.412 3.244 0.421 3.417 0.399 3.311 0.722 3.47 0.137 0.071 0.306 0.080 1.44 0.080 0.736 0 1.356-0.018 1.449-0.044 0.235-0.066 0.434-0.31 0.434-0.536 0-0.098-0.62-5.066-1.374-11.040-1.068-8.425-1.392-10.894-1.454-10.996-0.040-0.071-0.146-0.168-0.23-0.213-0.142-0.075-0.27-0.084-1.596-0.084-1.095 0.004-1.471 0.018-1.573 0.062zM51.235 7.911c0.053 0.585 0.213 2.105 0.359 3.377 0.142 1.276 0.261 2.336 0.261 2.362 0 0.031-0.745 0.044-2.15 0.044-1.183 0-2.15-0.013-2.15-0.035 0-0.018 0.51-0.979 1.135-2.136 0.62-1.157 1.423-2.686 1.782-3.399 0.359-0.709 0.652-1.29 0.656-1.285s0.053 0.488 0.106 1.073z"></path>
<path d="M26.438 6.338c-3.116 0.35-5.119 2.358-5.119 5.119 0 0.722 0.208 1.582 0.519 2.15 0.572 1.055 1.494 1.861 3.404 2.97 1.463 0.851 2.043 1.303 2.269 1.764 0.111 0.226 0.124 0.297 0.12 0.696-0.004 0.572-0.106 0.851-0.448 1.219-0.284 0.31-0.753 0.563-1.321 0.718-0.31 0.084-0.474 0.098-1.33 0.098-0.789 0.004-1.046-0.013-1.352-0.075-0.82-0.177-1.653-0.479-2.513-0.913-0.301-0.146-0.594-0.27-0.656-0.27-0.191 0-0.417 0.12-0.51 0.275-0.084 0.137-0.089 0.222-0.089 1.476 0 1.542-0.009 1.507 0.43 1.742 0.882 0.47 2.305 0.873 3.488 0.988 0.793 0.075 2.398 0.031 3.058-0.089 2.176-0.39 3.683-1.374 4.45-2.907 0.368-0.74 0.541-1.534 0.541-2.504 0-1.188-0.293-2.017-1.015-2.881-0.222-0.266-0.851-0.851-1.139-1.059-0.532-0.377-1.321-0.882-1.99-1.268-1.405-0.807-1.884-1.183-2.11-1.653-0.142-0.297-0.146-0.909-0.004-1.223 0.146-0.328 0.301-0.505 0.598-0.696 0.545-0.355 1.276-0.479 2.318-0.399 0.993 0.075 1.786 0.284 2.783 0.722 0.55 0.239 0.638 0.261 0.824 0.213 0.27-0.075 0.368-0.23 0.82-1.352 0.523-1.285 0.536-1.418 0.186-1.675-0.31-0.235-1.706-0.727-2.69-0.957-0.944-0.217-2.628-0.324-3.524-0.226z"></path>
<path d="M11.878 6.4c-3.071 0.474-5.234 2.726-5.678 5.899-0.071 0.519-0.071 1.604 0 1.972 0.177 0.926 0.572 1.715 1.188 2.353l0.284 0.297-0.168 0.102c-0.634 0.381-1.299 0.98-1.6 1.432-0.607 0.909-0.647 2.176-0.089 3.018 0.102 0.155 0.129 0.222 0.084 0.235-0.031 0.009-0.297 0.137-0.594 0.284-1.307 0.643-2.269 1.498-2.757 2.46-0.727 1.427-0.674 3.204 0.129 4.445 0.656 1.011 1.777 1.737 3.284 2.127 0.935 0.239 1.378 0.284 2.837 0.288 1.449 0 1.897-0.035 2.956-0.248 1.777-0.355 3.103-0.971 4.091-1.91 0.505-0.474 0.86-0.957 1.152-1.56 0.39-0.802 0.554-1.556 0.554-2.566 0-1.924-0.882-3.262-2.633-4.002-0.931-0.394-1.799-0.581-3.683-0.793-1.538-0.177-1.955-0.248-2.234-0.386-0.191-0.093-0.204-0.115-0.217-0.288-0.031-0.412 0.324-0.811 1.024-1.166l0.452-0.226 0.567 0.058c0.988 0.093 2.305-0.062 3.289-0.386 2.407-0.793 3.985-2.819 4.273-5.483 0.098-0.891 0.035-1.866-0.164-2.504l-0.089-0.279 0.142-0.022c0.075-0.013 0.625-0.071 1.219-0.129 1.148-0.115 1.201-0.133 1.383-0.386 0.044-0.058 0.168-0.488 0.279-0.957 0.168-0.727 0.191-0.873 0.151-1.015-0.053-0.204-0.248-0.394-0.439-0.434-0.075-0.013-1.378-0.027-2.894-0.027-1.715 0-2.81-0.018-2.907-0.044-0.665-0.191-2.42-0.279-3.191-0.16zM13.815 9.37c0.483 0.151 0.847 0.501 1.033 0.988 0.142 0.363 0.173 1.206 0.071 1.813-0.137 0.811-0.39 1.436-0.807 1.999-0.43 0.581-1.037 0.997-1.662 1.139-1.192 0.275-2.216-0.040-2.602-0.802-0.332-0.652-0.328-1.888 0.009-2.876 0.408-1.206 1.285-2.065 2.353-2.296 0.39-0.089 1.272-0.066 1.604 0.035zM10.305 23.468c1.875 0.195 2.407 0.301 3.023 0.616 0.625 0.315 0.842 0.771 0.727 1.525-0.093 0.585-0.279 0.962-0.696 1.392-0.39 0.403-0.802 0.647-1.52 0.895-0.842 0.293-1.76 0.425-2.961 0.425-1.494 0-2.469-0.284-2.978-0.864-0.479-0.55-0.532-1.423-0.129-2.247 0.142-0.293 0.248-0.434 0.541-0.722 0.39-0.381 0.669-0.567 1.21-0.798 0.368-0.16 1.037-0.372 1.188-0.372 0.049-0.004 0.767 0.066 1.596 0.151z"></path>
<path d="M61.85 6.586c-0.222 0.053-0.337 0.129-0.425 0.266-0.084 0.142-0.443 1.786-3.094 14.28-0.563 2.633-0.554 2.566-0.217 2.792l0.186 0.12h1.405c1.352 0 1.414-0.004 1.529-0.093 0.066-0.049 0.16-0.137 0.204-0.199 0.093-0.124 3.541-16.248 3.541-16.567 0.004-0.213-0.080-0.355-0.288-0.51-0.115-0.089-0.182-0.093-1.436-0.102-0.722-0.004-1.356 0.004-1.405 0.013z"></path>
<path d="M35.346 19.413c-0.647 0.075-1.135 0.315-1.542 0.753-0.421 0.456-0.691 1.046-0.785 1.733-0.208 1.511 0.638 2.566 2.061 2.566 0.745 0 1.339-0.235 1.813-0.722 0.563-0.572 0.873-1.361 0.873-2.225-0.004-0.745-0.186-1.228-0.612-1.618-0.474-0.434-1.019-0.581-1.808-0.488z"></path>
</symbol>
</defs>
</svg>
